<svg viewBox="0 0 127 80" fill="none" xmlns="http://www.w3.org/2000/svg">
  <path opacity=".2" fill-rule="evenodd" vector-effect="non-scaling-stroke" stroke-width="1"  clip-rule="evenodd" d="M104.057 21.87C102.884 9.598 92.55 0 79.97 0c-9.715 0-18.09 5.728-21.94 13.988a24.161 24.161 0 0 0-8.274-1.452c-13.366 0-24.202 10.835-24.202 24.201 0 .633.032 1.257.08 1.877A20.636 20.636 0 0 0 20.63 38C9.237 38 0 47.236 0 58.63c0 11.395 9.237 20.631 20.631 20.631h76.973c16.049 0 29.059-13.01 29.059-29.059 0-13.83-9.664-25.395-22.606-28.331z" fill="white"/>
</svg>
