<svg width="754" height="474" viewBox="0 0 754 474" fill="none" xmlns="http://www.w3.org/2000/svg">
  <path opacity=".399" d="M617.36 131.239C610.323 58.159 548.315 1 472.835 1c-58.294 0-108.54 34.11-131.651 83.3-15.49-5.59-32.204-8.646-49.641-8.646-80.2 0-145.213 64.521-145.213 144.117 0 3.765.19 7.484.475 11.177a124.73 124.73 0 0 0-30.016-3.659C48.421 227.289-7 282.292-7 350.145-7 417.996 48.42 473 116.789 473h461.853C674.938 473 753 395.521 753 299.952c0-82.358-57.985-151.228-135.64-168.713" stroke="white"/>
</svg>
