<svg width="190" height="119" viewBox="0 0 190 119" fill="none" xmlns="http://www.w3.org/2000/svg">
  <path opacity=".399" d="M155.17 33.356C153.433 15.2 138.121 1 119.483 1c-14.394 0-26.8 8.474-32.508 20.695a35.846 35.846 0 0 0-12.257-2.148c-19.804 0-35.857 16.029-35.857 35.803 0 .936.047 1.86.117 2.777a30.624 30.624 0 0 0-7.411-.909C14.685 57.218 1 70.883 1 87.74s13.685 30.521 30.567 30.521H145.61c23.778 0 43.053-19.248 43.053-42.99 0-20.462-14.318-37.571-33.493-41.915" stroke="white"/>
</svg>
